' Generated by UML Generator
' Encoded: rLXjRzis4FxkNq7iaxmuQPgsm61iHLsxQJqaJH2xAR2YA6ZfP7EH9LUalAPTzzjtFEg5fEJKI0SC_T1KvZrtl3lU6_bCAfwhOftqv8r8DppdQnOcNCgHKhbO50gcOPREn6TWnxsLY8258WyJwFK8nSuX4doSfIhFaWHozgN7sE4wsmgOB8RiN7-yWcI3bDzO2d_PAq5VOxSeCzFOQ_tXOAqLW-L590WxqXyErbens4FzHqXQlqYJso0M2QHy3KCsGylIPN_85bcM04yDadRxDl900aHaTH2gJqEcROTF2Z7RJ4GQiEOgNEr6V7LSTvMXYoMvxU0BdeKIuLUMmr981RaX1dop6RBV-POd8cr9cK6-BVtU25XpaGOyNyhAX7VlMuos3-dKtboTLN1qwaz_HejmkCcaMkOWFoR31m-IBEJ92bU6Jnu_UlI09_o6V-Rh3z7Y9-AVlRYo1LHq8bwEPhEt5rUJdG0whoKez5OAeH9P6lJ9T-KlRPz89UJAACxb2bqJOxm2Mdc6_lhrLFyuHU6GRt0FzTGwb5YaqNEGwbmVJl2nWFpsz5kyXBq2MIJAEZKhf7yejv7YepHw2MeQ1Kgef0xm0Lj2cbi_eoBdcdl8q1K3TWiyluYl05D00gtrAwoMZzkJy0aeBX8PKFfF8ojzY7oEv0bNlF6bdV8_b2-DulzN2582M43ZkxlrgEmxy9cfMhPNls6Lvk5Hf5rWe4FcWopBqQV6KktF7VgXTNmXLSv3PHeGyotSLqp9xP6CawZRJ2TMz1ugWH8LNsyeiFNA2gqQiYGpz71Lf3UQfQII5ttfWITum5on0zO87J1RPB-qxDe82FpCcbToDCMee9V9y_rQIxqqDb8hN5EncXWgsxDkF4r-af5P6gC2QOW76MN50Xky1cfEY4oWrmxGbbt4iGJb-iJQ9_2sG9DR6mnOMxnncoMyyiwvaTVophWMgqcrviHYItUTDwytiTQ5D8bfTNktw5VromIZKq2DNAk4wWMdYEg5TXbjV6TlyDt5kL7yJIfYWVDAUJIR3CkNqH-h4Kyc40f9eXgrsz5nNzFGfUCya_8QSjB27QDmL2daEKZ9buviC-IPLZ9abs83EFPKlKK3pCIu6s0yscLvGBATgZfW9CvPe_aHSDmgk8AnPanb8VTbRieUpct9hJxKI1_g6Z-yJjYQoJnZp4brvkP1PsuUj7FJ09rPb_pZRHNSCq5BK2s_xtNtUxGfKqgTyaHBSo_ZZ1t-BljqhdqQYLsLstNdkbR88ZMzvtIEInWyorjlC8zZ5UJ0ayh7xzuFc5ZpPVFRYWdK0_AOXs2tGeue4leFPYNeJPncFhInEuKusjM20ebj9j6-etBRbbK6gOu7rxvQ0XMFXjy_76-6CSpq6OZ8xfrE_IiJxnIlPVtz6IwvMjKZgAsavoz_zEcOHCWS4xuYScS7BoJrrT5esfHskWdUeMt3KmLdHy3viLP6iJ2BvOO7-uM4bPxsLBH7nfNbph6FvDnbdyNKtvzXt-DhXTWz4jSYsTxSrbD-7dHVdwbilCpvOb7TO9Rc1mevNMzWQGCqcLvRh4w8Tv2O9nAyyTpYCYbrwiO8VABm72N9pAHiC_syUqyz8yaax53QM6JKhGlJs-dhoSNR3xFf7o-ehgDY3uzF7ZkOY-iNLsUZouh-vE69Gtu-UZsPLSGlxF7nWFs2_nwUw3_wwz7nCVjQMrhpkSN37XhhUcGLnrQwsYhWALu2ly4hg5TI4OYEyLhJVtbus3wtU37KpFgbvcH2pEDgjNobwY8rprK7BRM2pjnf8rh9Gge6xXNi3DAbMarJFVqwLmUKH28fzlM7iphFfkXD8ZuluXXoY6Z10OsiUufryz5RT0gry9NyDbjhEyctOC2wPuA76B2iK9j2ESveFB0Z9HgFsdb1yiVVUQQnipPa5nj8nzSkycYUuV1OYjeDC08th-WIIGqOMUZ_en3d2KoU9ehqJNEtbwo3rq1pyFOLlW7e-zyyEyCVWRczeY8L5VtdF_t-V7XeluvrqgqNdqwwzIZPinyeZuwUEcyXzYiSqPm79ljToUTiFPuS7lxzrEcGBKI6Yla3Og_pPgLDy2yadK1VgzsWjc5tAjz2T2hlpvDwfntqUj0ZRVIHxQJQ4jmXyUZ8LRCYj63L5ktrLfyt4oGvmF2O1OrjzGWpmFbQQDDhKeSRRU5cORSYPV7etFqPf56nJlu5
' URL: http://www.plantuml.com/plantuml/uml/rLXjRzis4FxkNq7iaxmuQPgsm61iHLsxQJqaJH2xAR2YA6ZfP7EH9LUalAPTzzjtFEg5fEJKI0SC_T1KvZrtl3lU6_bCAfwhOftqv8r8DppdQnOcNCgHKhbO50gcOPREn6TWnxsLY8258WyJwFK8nSuX4doSfIhFaWHozgN7sE4wsmgOB8RiN7-yWcI3bDzO2d_PAq5VOxSeCzFOQ_tXOAqLW-L590WxqXyErbens4FzHqXQlqYJso0M2QHy3KCsGylIPN_85bcM04yDadRxDl900aHaTH2gJqEcROTF2Z7RJ4GQiEOgNEr6V7LSTvMXYoMvxU0BdeKIuLUMmr981RaX1dop6RBV-POd8cr9cK6-BVtU25XpaGOyNyhAX7VlMuos3-dKtboTLN1qwaz_HejmkCcaMkOWFoR31m-IBEJ92bU6Jnu_UlI09_o6V-Rh3z7Y9-AVlRYo1LHq8bwEPhEt5rUJdG0whoKez5OAeH9P6lJ9T-KlRPz89UJAACxb2bqJOxm2Mdc6_lhrLFyuHU6GRt0FzTGwb5YaqNEGwbmVJl2nWFpsz5kyXBq2MIJAEZKhf7yejv7YepHw2MeQ1Kgef0xm0Lj2cbi_eoBdcdl8q1K3TWiyluYl05D00gtrAwoMZzkJy0aeBX8PKFfF8ojzY7oEv0bNlF6bdV8_b2-DulzN2582M43ZkxlrgEmxy9cfMhPNls6Lvk5Hf5rWe4FcWopBqQV6KktF7VgXTNmXLSv3PHeGyotSLqp9xP6CawZRJ2TMz1ugWH8LNsyeiFNA2gqQiYGpz71Lf3UQfQII5ttfWITum5on0zO87J1RPB-qxDe82FpCcbToDCMee9V9y_rQIxqqDb8hN5EncXWgsxDkF4r-af5P6gC2QOW76MN50Xky1cfEY4oWrmxGbbt4iGJb-iJQ9_2sG9DR6mnOMxnncoMyyiwvaTVophWMgqcrviHYItUTDwytiTQ5D8bfTNktw5VromIZKq2DNAk4wWMdYEg5TXbjV6TlyDt5kL7yJIfYWVDAUJIR3CkNqH-h4Kyc40f9eXgrsz5nNzFGfUCya_8QSjB27QDmL2daEKZ9buviC-IPLZ9abs83EFPKlKK3pCIu6s0yscLvGBATgZfW9CvPe_aHSDmgk8AnPanb8VTbRieUpct9hJxKI1_g6Z-yJjYQoJnZp4brvkP1PsuUj7FJ09rPb_pZRHNSCq5BK2s_xtNtUxGfKqgTyaHBSo_ZZ1t-BljqhdqQYLsLstNdkbR88ZMzvtIEInWyorjlC8zZ5UJ0ayh7xzuFc5ZpPVFRYWdK0_AOXs2tGeue4leFPYNeJPncFhInEuKusjM20ebj9j6-etBRbbK6gOu7rxvQ0XMFXjy_76-6CSpq6OZ8xfrE_IiJxnIlPVtz6IwvMjKZgAsavoz_zEcOHCWS4xuYScS7BoJrrT5esfHskWdUeMt3KmLdHy3viLP6iJ2BvOO7-uM4bPxsLBH7nfNbph6FvDnbdyNKtvzXt-DhXTWz4jSYsTxSrbD-7dHVdwbilCpvOb7TO9Rc1mevNMzWQGCqcLvRh4w8Tv2O9nAyyTpYCYbrwiO8VABm72N9pAHiC_syUqyz8yaax53QM6JKhGlJs-dhoSNR3xFf7o-ehgDY3uzF7ZkOY-iNLsUZouh-vE69Gtu-UZsPLSGlxF7nWFs2_nwUw3_wwz7nCVjQMrhpkSN37XhhUcGLnrQwsYhWALu2ly4hg5TI4OYEyLhJVtbus3wtU37KpFgbvcH2pEDgjNobwY8rprK7BRM2pjnf8rh9Gge6xXNi3DAbMarJFVqwLmUKH28fzlM7iphFfkXD8ZuluXXoY6Z10OsiUufryz5RT0gry9NyDbjhEyctOC2wPuA76B2iK9j2ESveFB0Z9HgFsdb1yiVVUQQnipPa5nj8nzSkycYUuV1OYjeDC08th-WIIGqOMUZ_en3d2KoU9ehqJNEtbwo3rq1pyFOLlW7e-zyyEyCVWRczeY8L5VtdF_t-V7XeluvrqgqNdqwwzIZPinyeZuwUEcyXzYiSqPm79ljToUTiFPuS7lxzrEcGBKI6Yla3Og_pPgLDy2yadK1VgzsWjc5tAjz2T2hlpvDwfntqUj0ZRVIHxQJQ4jmXyUZ8LRCYj63L5ktrLfyt4oGvmF2O1OrjzGWpmFbQQDDhKeSRRU5cORSYPV7etFqPf56nJlu5
' Generated on: 2026-04-12T18:13:16.557675900

@startuml
skinparam classAttributeIconSize 0
hide circle

class MediaController {
  -movieDb: MovieHelper = new MovieHelper()
  -videoDb: VideoHelper = new VideoHelper()
  -audioDb: AudioHelper = new AudioHelper()
  --
  -isAudioOnly(filename: String): boolean
  -isVideoOnly(filename: String): boolean
  +seedMedia(ctx: Context): void
  +matchMedia(ctx: Context): void
}

class MediaRoutes {
  +{static} registerRoutes(app: Javalin): void
}

class Server {
  +{static} main(args: String[]): void
}

class AudioHelper {
  -URL: String = "jdbc:postgresql://localhost:5433/alakazam_db"
  -USER: String = "alakazam"
  -PASSWORD: String = "alakazam"
  --
  -getConnection(): Connection
  +insertAudioHashes(frames: List<FrameFingerprint>): void
  +findBestMatch(queryFrames: List<FrameFingerprint>): MatchResult
}

class MovieHelper {
  -URL: String = "jdbc:postgresql://localhost:5433/alakazam_db"
  -USER: String = "alakazam"
  -PASSWORD: String = "alakazam"
  --
  -getConnection(): Connection
  +insertMovieAndGetId(title: String, genre: String, duration: int, yearOfRelease: int): String
  +getMovieDetails(movieId: String): MovieMetaData
}

class VideoHelper {
  -URL: String = "jdbc:postgresql://localhost:5433/alakazam_db"
  -USER: String = "alakazam"
  -PASSWORD: String = "alakazam"
  --
  -getConnection(): Connection
  +insertVideoHashes(frames: List<FrameFingerprint>): void
  +findBestMatch(queryFrames: List<FrameFingerprint>): MatchResult
}

class AudioFingerprint {
  -frames: List<FrameFingerprint>
  --
  +AudioFingerprint()
  +AudioFingerprint(frames: List<FrameFingerprint>)
  +addHash(frame: FrameFingerprint): void
  +getFrames(): List<FrameFingerprint>
}

abstract class Fingerprint {
  +getFrames(): List<FrameFingerprint>
}

class FrameFingerprint {
  -videoID: String
  -timestamp: int
  -hash: long
  -chunkID: int
  --
  +FrameFingerprint(videoID: String, timestamp: int, hash: long, chunkID: int)
  +getVideoID(): String
  +getTimestamp(): int
  +getHash(): long
  +getChunkID(): int
}

class MatchResult {
  -mediaId: String
  -confidence: double
  -matchedHashes: int
  -timeOffset: int
  --
  +MatchResult(mediaId: String, confidence: double, matchedHashes: int, timeOffset: int)
  +getMediaId(): String
  +getConfidence(): double
  +getMatchedHashes(): int
  +getTimeOffset(): int
  +isMatch(): boolean
}

class MovieMetaData {
  +title: String
  +genre: String
  +duration: int
  +yearOfRelease: int
  --
  +MovieMetaData(title: String, genre: String, duration: int, yearOfRelease: int)
}

class UnifiedMatchResponse {
  +finalDecision: String
  +mediaId: String
  +genre: String
  +duration: int
  +yearOfRelease: int
  +isCrossVerified: boolean
  +statusMessage: String
  +audioDetails: PipelineDetails
  +videoDetails: PipelineDetails
  --
  +UnifiedMatchResponse(audio: MatchResult, video: MatchResult)
  -evaluateConsensus(audio: MatchResult, video: MatchResult): void
  +applyMetadata(meta: MovieMetaData): void
}

class PipelineDetails {
  +confidence: double
  +matchedHashes: int
  +timeOffset: int
  +match: boolean
  --
  +PipelineDetails(confidence: double, matchedHashes: int, timeOffset: int, match: boolean)
}

class VideoFingerprint {
  -frames: List<FrameFingerprint>
  -videoId: String
  -videoTitle: String
  --
  +VideoFingerprint(frames: List<FrameFingerprint>)
  +getFrames(): List<FrameFingerprint>
  +getVideoId(): String
  +getVideoTitle(): String
}

class FFTStrategy {
  +{static} fft(real: double[], imag: double[]): void
}

interface Fingerprintable {
  ~generateFingerprint(): Fingerprint
}

interface FingerprintStrategy {
  ~generate(samples: Media): Fingerprint
}

class PHashStrategy {
  +generate(media: Media): VideoFingerprint
}

class Audio {
  +Audio(id: String, title: String, audio: File)
  +Audio(id: String, title: String, audioPath: String)
  +generateFingerprint(): AudioFingerprint
}

abstract class Media {
  -id: String
  -title: String
  -file: File
  --
  +Media(id: String, title: String, file: File)
  +getId(): String
  +getTitle(): String
  +getFile(): File
  +generateFingerprint(): Fingerprint
}

class Video {
  -videoId: String
  -videoTitle: String
  -video: File
  --
  +Video(id: String, title: String, video: File)
  +Video(id: String, title: String, videoPath: String)
  +generateFingerprint(): VideoFingerprint
  +getVideoId(): String
  +getVideoTitle(): String
  +getVideo(): File
  +videoHasher(): void
}

class AudioFrameGrabber {
  -grabber: FFmpegFrameGrabber
  -started: boolean = false
  --
  +AudioFrameGrabber(mediaFile: File)
  +extractAllSamples(): double[]
  +close(): void
}

class AudioHasher {
  -{static} WINDOW_SIZE: int = 1024
  -{static} OVERLAP: int = 512
  -{static} BANDS: int = { 40, 80, 120, 180, 300 }
  --
  +{static} generate(mediaId: String, samples: double[]): AudioFingerprint
  -{static} getPeaks(mag: double[]): int[]
}

class VideoFrameGrabber {
  -grabber: FFmpegFrameGrabber
  -started: boolean = false
  -converter: Java2DFrameConverter = new Java2DFrameConverter()
  --
  +VideoFrameGrabber(video: File)
  +VideoFrameGrabber(videoPath: String)
  +start(): void
  +getLengthInTime(): long
  +grabFrame(): Frame
  +grabFrameToImage(): BufferedImage
  +grabFrameAtTimestamp(timestamp: long): Frame
  +grabFrameAtTimestampToImage(timestamp: long): BufferedImage
  +saveImage(image: BufferedImage, outputPath: String): void
  +close(): void
}

class VideoFrameHasher {
  -imageConverter: Java2DFrameConverter = new Java2DFrameConverter()
  -frameConverter: OpenCVFrameConverter.ToMat = new OpenCVFrameConverter.ToMat()
  -pHash: PHash = PHash.create()
  --
  +hashImage(image: BufferedImage): long
  +hashFrame(frame: Frame): long
  -matToLong(hash: Mat): long
}

MediaController *-- MovieHelper
MediaController *-- VideoHelper
MediaController *-- AudioHelper
AudioHelper ..> MatchResult
MovieHelper ..> MovieMetaData
VideoHelper ..> MatchResult
AudioFingerprint --|> Fingerprint
AudioFingerprint o-- FrameFingerprint
UnifiedMatchResponse *-- PipelineDetails
UnifiedMatchResponse ..> MatchResult
UnifiedMatchResponse ..> MovieMetaData
VideoFingerprint --|> Fingerprint
VideoFingerprint o-- FrameFingerprint
Fingerprintable ..> Fingerprint
FingerprintStrategy ..> Media
FingerprintStrategy ..> Fingerprint
PHashStrategy ..|> FingerprintStrategy
PHashStrategy ..> Media
PHashStrategy ..> VideoFingerprint
Audio --|> Media
Audio ..> AudioFingerprint
Media ..|> Fingerprintable
Media ..> Fingerprint
Video --|> Media
Video ..> VideoFingerprint
AudioHasher ..> AudioFingerprint
@enduml